<svg width="105" height="80" viewBox="0 0 105 80" fill="none" xmlns="http://www.w3.org/2000/svg">
<path d="M100.191 38.3777H104.65L99.6224 53.1888L105 68.8711H99.9285L96.0373 56.8044H95.9499L92.015 68.8711H87.5117L92.8894 53.1888L87.8615 38.3777H92.8457L96.4308 49.6167H96.5182L100.191 38.3777Z" fill="#252525"/>
<path d="M77.6553 68.8711V38.3777H82.4646V68.8711H77.6553Z" fill="#252525"/>
<path d="M64.8117 42.7339V51.9255H71.0201V56.2817H64.8117V68.8711H60.0024V38.3777H72.7252V42.7339H64.8117Z" fill="#252525"/>
<path d="M44.4607 45.3912V61.8576C44.4607 64.0357 45.4225 64.8634 46.9528 64.8634C48.483 64.8634 49.4449 64.0357 49.4449 61.8576V45.3912C49.4449 43.2131 48.483 42.3854 46.9528 42.3854C45.4225 42.3854 44.4607 43.2131 44.4607 45.3912ZM39.6514 61.5527V45.6961C39.6514 40.8172 42.2309 38.0292 46.9528 38.0292C51.6746 38.0292 54.2542 40.8172 54.2542 45.6961V61.5527C54.2542 66.4316 51.6746 69.2196 46.9528 69.2196C42.2309 69.2196 39.6514 66.4316 39.6514 61.5527Z" fill="#252525"/>
<path d="M26.1345 42.7339V51.2285H32.7364V55.5847H26.1345V64.5149H34.4415V68.8711H21.3252V38.3777H34.4415V42.7339H26.1345Z" fill="#252525"/>
<path d="M10.3181 68.8711L4.41581 46.7852H4.32837V68.8711H0V38.3777H6.03349L10.8865 56.6302H10.974V38.3777H15.2586V68.8711H10.3181Z" fill="#252525"/>
<path d="M34.6264 0V7.92103L8.98149 34.2393H0.262207L34.6264 0Z" fill="#252525"/>
<path d="M34.627 0V7.92103L60.2719 34.2393H68.9912L34.627 0Z" fill="#252525"/>
<path d="M79.8347 6.14182V13.4469L63.0022 28.7509L58.958 25.0481L79.8347 6.14182Z" fill="#252525"/>
<path d="M79.8348 6.14182L79.179 13.5543L96.9592 34.2393H103.881L79.8348 6.14182Z" fill="#252525"/>
<path d="M31.0366 21.9745V21.9745C31.8853 17.8192 37.8195 17.8323 38.7301 21.9745V21.9745V31.1731H31.0366V21.9745Z" fill="#252525"/>
<path d="M77.4302 25.0343V25.0343C77.892 22.4983 81.525 22.5048 82.0209 25.0343V25.0343V31.19H77.4302V25.0343Z" fill="#252525"/>
<path d="M104.937 78.6791C104.937 78.962 104.871 79.2024 104.739 79.4002C104.609 79.5959 104.431 79.7447 104.207 79.8468C103.985 79.9489 103.734 80 103.455 80C103.175 80 102.923 79.9489 102.699 79.8468C102.475 79.7447 102.298 79.5959 102.168 79.4002C102.037 79.2024 101.972 78.962 101.972 78.6791C101.972 78.494 102.007 78.3249 102.078 78.1718C102.15 78.0165 102.252 77.8815 102.382 77.7666C102.514 77.6517 102.67 77.5635 102.85 77.5018C103.031 77.438 103.231 77.4061 103.448 77.4061C103.734 77.4061 103.99 77.4614 104.214 77.572C104.438 77.6804 104.614 77.8304 104.742 78.0218C104.872 78.2133 104.937 78.4324 104.937 78.6791ZM104.342 78.6663C104.342 78.494 104.304 78.342 104.23 78.2101C104.155 78.0761 104.05 77.9719 103.916 77.8974C103.781 77.823 103.626 77.7857 103.448 77.7857C103.267 77.7857 103.11 77.823 102.978 77.8974C102.847 77.9719 102.746 78.0761 102.673 78.2101C102.601 78.342 102.565 78.494 102.565 78.6663C102.565 78.845 102.6 78.9982 102.67 79.1258C102.743 79.2513 102.845 79.3481 102.978 79.4161C103.112 79.4821 103.271 79.515 103.455 79.515C103.638 79.515 103.796 79.4821 103.929 79.4161C104.061 79.3481 104.162 79.2513 104.233 79.1258C104.306 78.9982 104.342 78.845 104.342 78.6663ZM104.829 76.4999C104.829 76.7254 104.769 76.9285 104.649 77.1093C104.53 77.2901 104.366 77.4326 104.159 77.5369C103.952 77.6411 103.717 77.6932 103.455 77.6932C103.188 77.6932 102.95 77.6411 102.741 77.5369C102.534 77.4326 102.371 77.2901 102.254 77.1093C102.137 76.9285 102.078 76.7254 102.078 76.4999C102.078 76.2298 102.137 76.0001 102.254 75.8108C102.374 75.6215 102.537 75.4768 102.744 75.3769C102.951 75.2769 103.187 75.2269 103.452 75.2269C103.718 75.2269 103.955 75.2769 104.162 75.3769C104.37 75.4768 104.532 75.6215 104.649 75.8108C104.769 76.0001 104.829 76.2298 104.829 76.4999ZM104.236 76.5095C104.236 76.3542 104.203 76.217 104.137 76.0979C104.071 75.9788 103.979 75.8852 103.861 75.8172C103.744 75.747 103.607 75.7119 103.452 75.7119C103.296 75.7119 103.159 75.7448 103.042 75.8108C102.926 75.8746 102.836 75.966 102.77 76.0852C102.705 76.2043 102.673 76.3457 102.673 76.5095C102.673 76.669 102.705 76.8084 102.77 76.9275C102.836 77.0466 102.927 77.1391 103.045 77.2051C103.162 77.271 103.299 77.304 103.455 77.304C103.611 77.304 103.746 77.271 103.861 77.2051C103.979 77.1391 104.071 77.0466 104.137 76.9275C104.203 76.8084 104.236 76.669 104.236 76.5095Z" fill="#252525"/>
<path d="M89.1067 75.2652V79.9362H88.5143V76.0022L87.3198 76.4362V75.9033L89.0138 75.2652H89.1067Z" fill="#252525"/>
<path d="M75.2488 77.2433V77.9516C75.2488 78.3324 75.2146 78.6536 75.1463 78.9152C75.078 79.1768 74.9798 79.3874 74.8517 79.5469C74.7236 79.7065 74.5688 79.8224 74.3874 79.8947C74.2081 79.9649 74.0052 80 73.779 80C73.5996 80 73.4342 79.9777 73.2826 79.933C73.131 79.8883 72.9944 79.8171 72.8727 79.7192C72.7532 79.6193 72.6507 79.4895 72.5653 79.33C72.4799 79.1704 72.4148 78.9769 72.37 78.7493C72.3251 78.5217 72.3027 78.2558 72.3027 77.9516V77.2433C72.3027 76.8626 72.3369 76.5435 72.4052 76.2862C72.4757 76.0288 72.5749 75.8225 72.703 75.6672C72.8311 75.5098 72.9848 75.3971 73.1641 75.329C73.3456 75.2609 73.5484 75.2269 73.7726 75.2269C73.954 75.2269 74.1205 75.2492 74.2721 75.2939C74.4258 75.3364 74.5624 75.4056 74.682 75.5013C74.8015 75.5949 74.9029 75.7204 74.9862 75.8778C75.0716 76.033 75.1367 76.2234 75.1815 76.4489C75.2264 76.6744 75.2488 76.9392 75.2488 77.2433ZM74.6532 78.0474V77.1444C74.6532 76.936 74.6404 76.7531 74.6147 76.5957C74.5913 76.4361 74.556 76.3 74.5091 76.1873C74.4621 76.0745 74.4023 75.9831 74.3297 75.9129C74.2593 75.8427 74.1771 75.7916 74.0832 75.7597C73.9914 75.7257 73.8878 75.7087 73.7726 75.7087C73.6317 75.7087 73.5068 75.7353 73.3979 75.7884C73.289 75.8395 73.1972 75.9214 73.1225 76.0341C73.0499 76.1468 72.9944 76.2947 72.956 76.4776C72.9176 76.6605 72.8983 76.8828 72.8983 77.1444V78.0474C72.8983 78.2558 72.9101 78.4398 72.9336 78.5993C72.9592 78.7589 72.9965 78.8971 73.0456 79.0141C73.0947 79.129 73.1545 79.2236 73.225 79.2981C73.2954 79.3725 73.3765 79.4278 73.4683 79.464C73.5623 79.498 73.6658 79.515 73.779 79.515C73.9241 79.515 74.0511 79.4874 74.16 79.4321C74.2689 79.3768 74.3596 79.2906 74.4322 79.1736C74.5069 79.0545 74.5624 78.9024 74.5987 78.7174C74.635 78.5302 74.6532 78.3069 74.6532 78.0474Z" fill="#252525"/>
<path d="M60.5398 79.4512V79.9362H57.4881V79.5118L59.0156 77.8176C59.2034 77.6092 59.3486 77.4326 59.4511 77.288C59.5557 77.1412 59.6282 77.0104 59.6688 76.8956C59.7115 76.7786 59.7329 76.6595 59.7329 76.5382C59.7329 76.3851 59.7008 76.2468 59.6368 76.1234C59.5749 75.998 59.4831 75.898 59.3614 75.8235C59.2397 75.7491 59.0924 75.7119 58.9195 75.7119C58.7124 75.7119 58.5395 75.7523 58.4007 75.8331C58.2641 75.9118 58.1616 76.0224 58.0933 76.1649C58.025 76.3074 57.9908 76.4712 57.9908 76.6563H57.3984C57.3984 76.3946 57.4561 76.1554 57.5714 75.9384C57.6866 75.7214 57.8574 75.5491 58.0837 75.4215C58.31 75.2918 58.5886 75.2269 58.9195 75.2269C59.2141 75.2269 59.466 75.279 59.6752 75.3832C59.8844 75.4853 60.0445 75.63 60.1555 75.8172C60.2687 76.0022 60.3253 76.2192 60.3253 76.468C60.3253 76.6042 60.3018 76.7424 60.2548 76.8828C60.21 77.0211 60.147 77.1593 60.0659 77.2976C59.9869 77.4358 59.894 77.572 59.7873 77.706C59.6827 77.84 59.5706 77.9719 59.4511 78.1016L58.2022 79.4512H60.5398Z" fill="#252525"/>
<path d="M44.6812 79.6235C44.6812 79.5235 44.7121 79.4395 44.774 79.3715C44.8381 79.3013 44.9299 79.2662 45.0494 79.2662C45.169 79.2662 45.2597 79.3013 45.3216 79.3715C45.3856 79.4395 45.4177 79.5235 45.4177 79.6235C45.4177 79.7214 45.3856 79.8043 45.3216 79.8724C45.2597 79.9404 45.169 79.9745 45.0494 79.9745C44.9299 79.9745 44.8381 79.9404 44.774 79.8724C44.7121 79.8043 44.6812 79.7214 44.6812 79.6235Z" fill="#252525"/>
<path d="M32.12 75.2907V79.9362H31.5115V75.2907H32.12ZM33.6186 75.2907V75.7948H30.0161V75.2907H33.6186Z" fill="#252525"/>
<path d="M17.8385 78.7621C17.8385 78.6536 17.8214 78.5579 17.7873 78.4749C17.7552 78.3898 17.6976 78.3132 17.6143 78.2452C17.5332 78.1771 17.4201 78.1122 17.2749 78.0506C17.1319 77.9889 16.9504 77.9261 16.7305 77.8623C16.5 77.7942 16.2918 77.7187 16.1061 77.6358C15.9204 77.5507 15.7613 77.4539 15.629 77.3454C15.4966 77.237 15.3952 77.1125 15.3248 76.9721C15.2543 76.8318 15.2191 76.6712 15.2191 76.4904C15.2191 76.3096 15.2564 76.1426 15.3312 75.9894C15.4059 75.8363 15.5126 75.7034 15.6514 75.5906C15.7923 75.4758 15.9599 75.3864 16.1541 75.3226C16.3484 75.2588 16.5651 75.2269 16.8042 75.2269C17.1543 75.2269 17.451 75.2939 17.6944 75.4279C17.9399 75.5598 18.1267 75.7331 18.2548 75.948C18.3829 76.1607 18.4469 76.3883 18.4469 76.6308H17.8321C17.8321 76.4563 17.7947 76.3021 17.72 76.1681C17.6453 76.032 17.5321 75.9256 17.3806 75.8491C17.229 75.7704 17.0369 75.731 16.8042 75.731C16.5843 75.731 16.4028 75.764 16.2598 75.8299C16.1168 75.8959 16.01 75.9852 15.9396 76.0979C15.8713 76.2107 15.8371 76.3393 15.8371 76.484C15.8371 76.5818 15.8574 76.6712 15.8979 76.752C15.9406 76.8307 16.0058 76.9041 16.0933 76.9721C16.1829 77.0402 16.2961 77.103 16.4327 77.1604C16.5715 77.2178 16.7369 77.2731 16.9291 77.3263C17.1938 77.4007 17.4222 77.4837 17.6143 77.5752C17.8065 77.6666 17.9644 77.7698 18.0883 77.8846C18.2142 77.9974 18.3071 78.1261 18.3669 78.2707C18.4288 78.4132 18.4597 78.5749 18.4597 78.7557C18.4597 78.945 18.4213 79.1162 18.3444 79.2694C18.2676 79.4225 18.1576 79.5533 18.0146 79.6618C17.8716 79.7703 17.6997 79.8543 17.4991 79.9139C17.3005 79.9713 17.0785 80 16.833 80C16.6174 80 16.405 79.9702 16.1958 79.9107C15.9887 79.8511 15.7997 79.7618 15.629 79.6427C15.4603 79.5235 15.3248 79.3768 15.2223 79.2024C15.1219 79.0258 15.0718 78.8216 15.0718 78.5898H15.6866C15.6866 78.7493 15.7176 78.8865 15.7795 79.0013C15.8414 79.1141 15.9257 79.2077 16.0324 79.2821C16.1413 79.3566 16.2641 79.4119 16.4007 79.448C16.5395 79.4821 16.6836 79.4991 16.833 79.4991C17.0486 79.4991 17.2311 79.4693 17.3806 79.4097C17.53 79.3502 17.6432 79.2651 17.72 79.1545C17.799 79.0439 17.8385 78.9131 17.8385 78.7621Z" fill="#252525"/>
<path d="M3.44008 79.4353V79.9362H0.971169V79.4353H3.44008ZM1.09606 75.2907V79.9362H0.478027V75.2907H1.09606ZM3.11345 77.288V77.7889H0.971169V77.288H3.11345ZM3.40806 75.2907V75.7948H0.971169V75.2907H3.40806Z" fill="#252525"/>
</svg>
