<svg width="24" height="24" viewBox="0 0 24 24" fill="none" xmlns="http://www.w3.org/2000/svg">
<ellipse cx="11.9805" cy="12.0234" rx="7.85401" ry="7.85156" fill="#171717"/>
<path d="M23.4675 10.4884L21.8354 8.59285C21.5233 8.23294 21.2713 7.56111 21.2713 7.08123V5.04174C21.2713 3.77006 20.2273 2.72632 18.9552 2.72632H16.9151C16.447 2.72632 15.763 2.47438 15.403 2.16246L13.5068 0.530867C12.6788 -0.176956 11.3227 -0.176956 10.4827 0.530867L8.59853 2.17446C8.23851 2.47438 7.55447 2.72632 7.08644 2.72632H5.01031C3.73823 2.72632 2.69417 3.77006 2.69417 5.04174V7.09323C2.69417 7.56111 2.44215 8.23294 2.14213 8.59285L0.522032 10.5004C-0.174011 11.3282 -0.174011 12.6718 0.522032 13.4996L2.14213 15.4071C2.44215 15.7671 2.69417 16.4389 2.69417 16.9068V18.9583C2.69417 20.2299 3.73823 21.2737 5.01031 21.2737H7.08644C7.55447 21.2737 8.23851 21.5256 8.59853 21.8375L10.4947 23.4691C11.3227 24.177 12.6788 24.177 13.5188 23.4691L15.415 21.8375C15.775 21.5256 16.447 21.2737 16.9271 21.2737H18.9672C20.2393 21.2737 21.2833 20.2299 21.2833 18.9583V16.9188C21.2833 16.4509 21.5353 15.7671 21.8474 15.4071L23.4795 13.5116C24.1755 12.6838 24.1755 11.3162 23.4675 10.4884ZM16.9871 9.73257L11.1907 15.5271C11.0227 15.6951 10.7947 15.7911 10.5547 15.7911C10.3146 15.7911 10.0866 15.6951 9.91862 15.5271L7.01444 12.6238C6.66641 12.2759 6.66641 11.7001 7.01444 11.3522C7.36246 11.0042 7.93849 11.0042 8.28651 11.3522L10.5547 13.6196L15.715 8.46089C16.063 8.11297 16.639 8.11297 16.9871 8.46089C17.3351 8.8088 17.3351 9.38465 16.9871 9.73257Z" fill="#FFF500"/>
</svg>
